<?xml version="1.0" encoding="utf-8"?>
<!-- Generator: Adobe Illustrator 21.0.2, SVG Export Plug-In . SVG Version: 6.00 Build 0)  -->
<svg version="1.1" id="Camada_1" xmlns="http://www.w3.org/2000/svg" xmlns:xlink="http://www.w3.org/1999/xlink" x="0px" y="0px"
	 viewBox="0 0 189 135" style="enable-background:new 0 0 189 135;" xml:space="preserve">
<style type="text/css">
	.st0{fill:#232328;}
	.st1{fill:url(#SVGID_1_);}
	.st2{fill:#005BEA;}
	.st3{fill:#FFFFFF;}
</style>
<g>
	<path class="st0" d="M6.3,93.5h1.4l2-6c0.7,0.2,1.3,0.5,1.9,0.8c0.6,0.3,1,0.7,1.3,1.1s0.5,1.4,0.5,3.1v1.1h6.8
		c0.2,0.5,0.3,1.1,0.3,1.7c0,0.5-0.1,0.8-0.3,1c-0.2,0.2-0.5,0.3-1.1,0.3h-5.7v7.9c0,2.3,0.2,3.9,0.6,4.7c0.4,0.8,1,1.3,1.9,1.3
		c0.9,0,2-0.3,3.3-1c0.4,0.5,0.6,1.1,0.6,1.8c0,0.9-0.5,1.5-1.4,1.8c-1,0.3-2.4,0.5-4.5,0.5c-2.2,0-3.8-0.4-4.7-1.3
		c-0.9-0.9-1.4-2.6-1.4-5.1v-3.5c0-2.2-0.1-4.6-0.2-7.1h-2c-0.2-0.6-0.4-1.2-0.4-1.7c0-0.5,0.1-0.8,0.3-1
		C5.5,93.6,5.8,93.5,6.3,93.5z"/>
	<path class="st0" d="M22.6,94.5c0-0.5,0.2-0.8,0.5-0.9c0.4-0.1,2.6-0.3,6.6-0.4c0.1,0.6,0.1,1.3,0,2.3c1.7-1,3.2-1.7,4.6-2
		c1.4-0.3,2.6-0.5,3.6-0.5c0.5,0,0.8,0.1,1,0.2c0.2,0.1,0.2,0.4,0.2,0.8c0,0.7-0.1,1.5-0.3,2.3c-0.2,0.8-0.5,1.3-0.8,1.5
		c-0.3,0.2-0.8,0.4-1.6,0.5c-0.7,0.1-1.1,0.1-1.2,0.1C35,98.3,34.7,97.8,34,97c-1,0-1.7,0.4-2.3,1.1c-0.5,0.7-0.8,2.6-0.8,5.5
		c0,2.7,0,5,0.1,7h3.1c0.2,0.4,0.4,0.9,0.4,1.5c0,0.5-0.1,0.8-0.3,1c-0.2,0.2-0.6,0.3-1.1,0.3H22.9c-0.2-0.6-0.4-1.1-0.4-1.6
		c0-0.4,0.1-0.7,0.3-0.9c0.2-0.2,0.5-0.3,0.9-0.3h1.5c0.1-2,0.1-4.2,0.1-6.8c0-3.7-0.2-5.9-0.5-6.6c-0.4-0.7-1-1-1.9-1
		C22.7,95.6,22.6,95.1,22.6,94.5z"/>
	<path class="st0" d="M49.5,110.6h2.4c0.2,0.4,0.3,0.9,0.3,1.5c0,0.5-0.1,0.8-0.3,1s-0.6,0.3-1.1,0.3h-9.6c-0.2-0.6-0.3-1.1-0.3-1.6
		c0-0.4,0.1-0.7,0.3-0.9c0.2-0.2,0.5-0.3,0.9-0.3h1.6c0.1-1.7,0.1-3.5,0.1-5.5c0-3,0-4.9-0.1-5.9c0-1-0.2-1.7-0.3-2.1
		c-0.2-0.4-0.4-0.7-0.7-0.8c-0.3-0.1-0.8-0.2-1.5-0.2c-0.2-0.4-0.3-0.8-0.3-1.3c0-0.7,0.3-1.2,0.9-1.4c0.6-0.2,1.9-0.3,3.7-0.3
		c1.4,0,2.4,0.1,2.9,0.2c0.5,0.1,0.8,0.3,0.9,0.6c0.1,0.3,0.1,0.8,0.1,1.3v9.9C49.4,107.1,49.4,108.9,49.5,110.6z M45.8,90.6
		c-1.2,0-2.1-0.2-2.6-0.7c-0.5-0.5-0.8-1.1-0.8-2c0-0.9,0.3-1.6,1-2.2c0.7-0.6,1.6-0.9,2.9-0.9c1.3,0,2.2,0.2,2.7,0.7
		c0.5,0.5,0.8,1.1,0.8,1.9c0,0.9-0.3,1.6-1,2.2S47.2,90.6,45.8,90.6z"/>
	<path class="st0" d="M74.3,101.1c0,4.7,0,7.9,0.1,9.5h2.2c0.2,0.4,0.4,0.9,0.4,1.5c0,0.5-0.1,0.8-0.3,1c-0.2,0.2-0.6,0.3-1.1,0.3
		h-8.3c-0.2-0.6-0.3-1.1-0.3-1.6c0-0.4,0.1-0.7,0.3-0.9c0.2-0.2,0.5-0.3,0.9-0.3h0.5c0.1-2.3,0.1-4.6,0.1-6.9c0-2.7-0.3-4.5-0.8-5.5
		c-0.5-0.9-1.3-1.4-2.4-1.4c-0.7,0-1.3,0.3-1.8,0.8c-0.5,0.6-0.8,1.7-0.8,3.5v4c0,1.7,0,3.5,0.1,5.5h1.4c0.2,0.4,0.3,0.9,0.3,1.5
		c0,0.5-0.1,0.8-0.3,1c-0.2,0.2-0.6,0.3-1.1,0.3h-8.5c-0.2-0.6-0.4-1.1-0.4-1.6c0-0.4,0.1-0.7,0.3-0.9c0.2-0.2,0.5-0.3,0.9-0.3H57
		c0.1-2.2,0.1-4.5,0.1-6.8c0-3.7-0.2-5.9-0.5-6.6c-0.4-0.7-1-1-1.9-1c-0.2-0.5-0.4-1.1-0.4-1.6c0-0.5,0.2-0.8,0.5-0.9
		c0.4-0.1,2.6-0.3,6.6-0.4c0.1,0.6,0.1,1.3,0,2.3c1.5-0.9,2.8-1.6,4.1-1.9C66.9,93.2,68,93,69,93c1.3,0,2.3,0.2,3,0.6
		c0.7,0.4,1.2,0.9,1.5,1.6c1.2-0.7,2.4-1.3,3.7-1.7c1.2-0.4,2.3-0.6,3.2-0.6c1.7,0,3.1,0.4,4,1.2c0.9,0.8,1.4,2.5,1.4,5
		c0,6.6,0.1,10.1,0.4,10.6c0.2,0.5,0.8,0.8,1.6,0.8c0.2,0.5,0.3,1,0.3,1.5c0,0.5-0.2,0.8-0.5,1c-0.3,0.2-0.9,0.3-1.8,0.3
		c-2.2,0-3.5,0-4.1-0.1c-0.6-0.1-1-0.3-1.2-0.7c-0.2-0.4-0.3-1-0.3-1.9v-7.1c0-2.7-0.3-4.5-0.8-5.5c-0.5-0.9-1.3-1.4-2.4-1.4
		c-0.7,0-1.3,0.3-1.8,0.8C74.5,98.2,74.3,99.3,74.3,101.1z"/>
	<path class="st0" d="M109.5,104.5c0,2.7,0.1,4.3,0.3,4.9c0.2,0.6,0.7,0.9,1.5,0.9c0.2,0.4,0.3,0.9,0.3,1.3c0,0.7-0.5,1.2-1.5,1.5
		c-1,0.3-1.9,0.5-2.7,0.5c-0.6,0-1.1-0.1-1.3-0.3c-0.3-0.2-0.6-0.7-1.2-1.5c-1.2,0.6-2.4,1.1-3.6,1.4c-1.1,0.3-2.4,0.5-3.7,0.5
		c-1.7,0-3.1-0.5-4-1.4c-1-0.9-1.5-2.7-1.5-5.5c0-4.1,0-6.7-0.1-7.6c0-1-0.2-1.7-0.3-2.1c-0.2-0.4-0.4-0.7-0.6-0.8
		c-0.3-0.1-0.7-0.2-1.2-0.2c-0.2-0.4-0.4-0.8-0.4-1.3c0-0.6,0.4-1,1.1-1.3c0.7-0.2,1.9-0.4,3.5-0.4c1.2,0,2,0.1,2.5,0.2
		c0.5,0.1,0.8,0.4,0.9,0.6c0.1,0.3,0.2,1.2,0.2,2.8v7.1c0,2.6,0.2,4.3,0.7,5.1c0.5,0.8,1.2,1.2,2.1,1.2c0.7,0,1.3-0.2,1.9-0.5
		s0.9-0.7,1.1-1.2c0.1-0.5,0.2-1.4,0.2-2.6c0-3.5,0-5.8,0-6.7c0-1-0.1-1.7-0.2-2.1c-0.1-0.5-0.3-0.7-0.5-0.9
		c-0.2-0.1-0.6-0.2-1.1-0.2c-0.2-0.4-0.4-0.8-0.4-1.3c0-0.6,0.4-1,1.1-1.3c0.8-0.2,1.8-0.4,3.2-0.4c1.2,0,2,0.1,2.5,0.2
		c0.5,0.1,0.8,0.4,0.9,0.7c0.1,0.3,0.2,1.3,0.2,2.9V104.5z"/>
	<path class="st0" d="M114.4,94.5c0-0.5,0.2-0.8,0.5-0.9c0.4-0.1,2.6-0.3,6.6-0.4c0.1,0.6,0.1,1.3,0,2.3c1.7-1,3.2-1.7,4.6-2
		c1.4-0.3,2.6-0.5,3.6-0.5c0.5,0,0.8,0.1,1,0.2c0.2,0.1,0.2,0.4,0.2,0.8c0,0.7-0.1,1.5-0.3,2.3c-0.2,0.8-0.5,1.3-0.8,1.5
		c-0.3,0.2-0.8,0.4-1.6,0.5c-0.7,0.1-1.1,0.1-1.2,0.1s-0.5-0.5-1.1-1.3c-1,0-1.7,0.4-2.3,1.1c-0.5,0.7-0.8,2.6-0.8,5.5
		c0,2.7,0,5,0.1,7h3.1c0.2,0.4,0.4,0.9,0.4,1.5c0,0.5-0.1,0.8-0.3,1c-0.2,0.2-0.6,0.3-1.1,0.3h-10.2c-0.2-0.6-0.4-1.1-0.4-1.6
		c0-0.4,0.1-0.7,0.3-0.9c0.2-0.2,0.5-0.3,0.9-0.3h1.5c0.1-2,0.1-4.2,0.1-6.8c0-3.7-0.2-5.9-0.5-6.6c-0.4-0.7-1-1-1.9-1
		C114.5,95.6,114.4,95.1,114.4,94.5z"/>
	<path class="st0" d="M133.8,93.5h1.4l2-6c0.7,0.2,1.3,0.5,1.9,0.8c0.6,0.3,1,0.7,1.3,1.1s0.5,1.4,0.5,3.1v1.1h6.8
		c0.2,0.5,0.3,1.1,0.3,1.7c0,0.5-0.1,0.8-0.3,1c-0.2,0.2-0.5,0.3-1.1,0.3h-5.7v7.9c0,2.3,0.2,3.9,0.6,4.7c0.4,0.8,1,1.3,1.9,1.3
		c0.9,0,2-0.3,3.3-1c0.4,0.5,0.6,1.1,0.6,1.8c0,0.9-0.5,1.5-1.4,1.8c-1,0.3-2.4,0.5-4.5,0.5c-2.2,0-3.8-0.4-4.7-1.3
		c-0.9-0.9-1.4-2.6-1.4-5.1v-3.5c0-2.2-0.1-4.6-0.2-7.1h-2c-0.2-0.6-0.4-1.2-0.4-1.7c0-0.5,0.1-0.8,0.3-1
		C133.1,93.6,133.4,93.5,133.8,93.5z"/>
	<path class="st0" d="M158.4,110.6h2.4c0.2,0.4,0.3,0.9,0.3,1.5c0,0.5-0.1,0.8-0.3,1s-0.6,0.3-1.1,0.3h-9.6
		c-0.2-0.6-0.3-1.1-0.3-1.6c0-0.4,0.1-0.7,0.3-0.9c0.2-0.2,0.5-0.3,0.9-0.3h1.6c0.1-1.7,0.1-3.5,0.1-5.5c0-3,0-4.9-0.1-5.9
		c0-1-0.2-1.7-0.3-2.1c-0.2-0.4-0.4-0.7-0.7-0.8c-0.3-0.1-0.8-0.2-1.5-0.2c-0.2-0.4-0.3-0.8-0.3-1.3c0-0.7,0.3-1.2,0.9-1.4
		c0.6-0.2,1.9-0.3,3.7-0.3c1.4,0,2.4,0.1,2.9,0.2c0.5,0.1,0.8,0.3,0.9,0.6c0.1,0.3,0.1,0.8,0.1,1.3v9.9
		C158.3,107.1,158.4,108.9,158.4,110.6z M154.8,90.6c-1.2,0-2.1-0.2-2.6-0.7c-0.5-0.5-0.8-1.1-0.8-2c0-0.9,0.3-1.6,1-2.2
		c0.7-0.6,1.6-0.9,2.9-0.9c1.3,0,2.2,0.2,2.7,0.7c0.5,0.5,0.8,1.1,0.8,1.9c0,0.9-0.3,1.6-1,2.2C157.2,90.3,156.2,90.6,154.8,90.6z"
		/>
	<path class="st0" d="M164.7,110.6c0.7-0.9,2.4-3.4,5.1-7.4c-1.2-1.8-2.1-3.2-2.7-4.1c-0.6-0.9-1.1-1.6-1.4-2
		c-0.4-0.4-0.7-0.7-1-0.8c-0.3-0.1-0.8-0.2-1.3-0.2c-0.2-0.4-0.3-0.9-0.3-1.5c0-0.6,0.3-1,1-1.2c0.7-0.2,2.1-0.3,4.4-0.3
		c0.4,0,1,0.1,1.6,0.2c0.6,0.2,1,0.5,1.3,0.9c0.3,0.5,0.7,1.3,1.2,2.5c0.5,1.2,1.3,2.6,2.4,4.4c1.2-1.9,2-3.4,2.6-4.7h-0.9
		c-0.2-0.5-0.4-1-0.4-1.5s0.1-0.9,0.3-1.1c0.2-0.2,0.5-0.4,1-0.4h6c0.2,0.5,0.4,0.9,0.4,1.4c0,0.6-0.1,1-0.3,1.2
		c-0.2,0.2-0.6,0.3-1.2,0.3h-0.1c-1.6,2-3.3,4.3-5.1,7c2.7,4.1,4.3,6.3,4.7,6.6c0.4,0.3,0.9,0.4,1.7,0.4c0.2,0.3,0.3,0.7,0.3,1.3
		c0,0.6-0.2,1-0.7,1.2c-0.5,0.2-1.3,0.3-2.3,0.3c-1.8,0-3,0-3.5-0.1c-0.5-0.1-0.9-0.3-1.2-0.7c-0.3-0.4-1.6-2.7-4-7
		c-1.4,2.3-2.3,4-2.6,5h1.3c0.2,0.4,0.3,0.9,0.3,1.5c0,0.5-0.1,0.8-0.3,1c-0.2,0.2-0.6,0.3-1.1,0.3h-6.6c-0.2-0.6-0.3-1.1-0.3-1.6
		c0-0.4,0.1-0.7,0.3-0.9c0.2-0.2,0.5-0.3,0.9-0.3H164.7z"/>
	<linearGradient id="SVGID_1_" gradientUnits="userSpaceOnUse" x1="93.0364" y1="-2.3284" x2="93.5191" y2="71.1506">
		<stop  offset="0" style="stop-color:#005BEA"/>
		<stop  offset="1" style="stop-color:#00C6FB"/>
	</linearGradient>
	<circle class="st1" cx="93.3" cy="41.7" r="36.7"/>
	<path class="st2" d="M22.7,126.6c0,2.2-1.3,3.4-3.4,3.4h-2.4v-6.8h2.4C21.4,123.1,22.7,124.4,22.7,126.6z M21.5,126.6
		c0-1.6-0.8-2.5-2.2-2.5H18v5h1.3C20.7,129,21.5,128.1,21.5,126.6z"/>
	<path class="st2" d="M29.4,129v1h-5.1v-6.8h5v1h-3.8v2h3v0.9h-3v2H29.4z"/>
	<path class="st2" d="M34,130h-1.3l-2.5-6.8h1.2l1.6,4.5l0.4,1.4l0.4-1.3l1.6-4.6h1.2L34,130z"/>
	<path class="st2" d="M42.8,129v1h-5.1v-6.8h5v1h-3.8v2h3v0.9h-3v2H42.8z"/>
	<path class="st2" d="M49.2,129v1h-4.9v-6.8h1.1v5.9H49.2z"/>
	<path class="st2" d="M56.4,126.6c0,2.2-1.2,3.5-3.2,3.5c-2,0-3.2-1.3-3.2-3.5c0-2.2,1.2-3.5,3.2-3.5
		C55.1,123,56.4,124.4,56.4,126.6z M51.1,126.6c0,1.6,0.8,2.6,2.1,2.6c1.3,0,2.1-0.9,2.1-2.6c0-1.6-0.8-2.6-2.1-2.6
		C51.9,124,51.1,124.9,51.1,126.6z"/>
	<path class="st2" d="M63,125.3c0,1.3-0.9,2.1-2.4,2.1h-1.5v2.6H58v-6.8h2.6C62.1,123.1,63,123.9,63,125.3z M61.9,125.3
		c0-0.8-0.4-1.2-1.4-1.2h-1.3v2.4h1.3C61.5,126.5,61.9,126,61.9,125.3z"/>
	<path class="st2" d="M69.6,129v1h-5.1v-6.8h5v1h-3.8v2h3v0.9h-3v2H69.6z"/>
	<path class="st2" d="M73.7,127.2h-1.5v2.7h-1.1v-6.8h2.8c1.5,0,2.4,0.8,2.4,2.1c0,1-0.5,1.7-1.5,1.9l1.9,2.9h-1.3L73.7,127.2z
		 M72.2,126.3h1.6c0.9,0,1.3-0.4,1.3-1.1s-0.4-1.1-1.3-1.1h-1.6V126.3z"/>
	<path class="st2" d="M86.3,124.1h-2.3v5.9h-1.1v-5.9h-2.3v-1h5.8V124.1z"/>
	<path class="st2" d="M93.4,126.6c0,2.2-1.2,3.5-3.2,3.5c-2,0-3.2-1.3-3.2-3.5c0-2.2,1.2-3.5,3.2-3.5
		C92.2,123,93.4,124.4,93.4,126.6z M88.1,126.6c0,1.6,0.8,2.6,2.1,2.6c1.3,0,2.1-0.9,2.1-2.6c0-1.6-0.8-2.6-2.1-2.6
		C88.9,124,88.1,124.9,88.1,126.6z"/>
	<path class="st2" d="M101.1,126.6c0,2.2-1.2,3.5-3.2,3.5c-2,0-3.2-1.3-3.2-3.5c0-2.2,1.2-3.5,3.2-3.5
		C99.9,123,101.1,124.4,101.1,126.6z M95.8,126.6c0,1.6,0.8,2.6,2.1,2.6c1.3,0,2.1-0.9,2.1-2.6c0-1.6-0.8-2.6-2.1-2.6
		C96.6,124,95.8,124.9,95.8,126.6z"/>
	<path class="st2" d="M107.6,129v1h-4.9v-6.8h1.1v5.9H107.6z"/>
	<path class="st2" d="M114,124.4l-0.8,0.8c-0.4-0.8-0.9-1.2-1.9-1.2c-1,0-1.5,0.4-1.5,1c0,0.5,0.4,0.8,1.8,1.1
		c1.8,0.3,2.5,0.9,2.5,2c0,1.2-1.1,2-2.7,2c-1.5,0-2.4-0.5-2.9-1.4l0.8-0.8c0.4,0.8,1.1,1.2,2.2,1.2c1,0,1.6-0.3,1.6-1
		c0-0.5-0.4-0.8-1.7-1c-1.9-0.4-2.6-0.9-2.6-2c0-1.2,1-2.1,2.7-2.1C112.6,123,113.4,123.5,114,124.4z"/>
	<path class="st2" d="M124,125.3c0,1.3-0.9,2.1-2.4,2.1h-1.5v2.6H119v-6.8h2.6C123.1,123.1,124,123.9,124,125.3z M122.9,125.3
		c0-0.8-0.4-1.2-1.4-1.2h-1.3v2.4h1.3C122.4,126.5,122.9,126,122.9,125.3z"/>
	<path class="st2" d="M130.4,129v1h-4.9v-6.8h1.1v5.9H130.4z"/>
	<path class="st2" d="M135.5,128.2h-2.9L132,130h-1.1l2.6-6.8h1.3l2.6,6.8h-1.2L135.5,128.2z M135.2,127.3l-0.8-2.2l-0.3-1h0l-0.3,1
		l-0.8,2.2H135.2z"/>
	<path class="st2" d="M142.7,124.1h-2.3v5.9h-1.1v-5.9h-2.3v-1h5.8V124.1z"/>
	<path class="st2" d="M145.2,124.1v2h3v1h-3v2.9H144v-6.8h4.9v1H145.2z"/>
	<path class="st2" d="M156.3,126.6c0,2.2-1.2,3.5-3.2,3.5c-2,0-3.2-1.3-3.2-3.5c0-2.2,1.2-3.5,3.2-3.5
		C155.1,123,156.3,124.4,156.3,126.6z M151.1,126.6c0,1.6,0.8,2.6,2.1,2.6c1.3,0,2.1-0.9,2.1-2.6c0-1.6-0.8-2.6-2.1-2.6
		C151.8,124,151.1,124.9,151.1,126.6z"/>
	<path class="st2" d="M160.6,127.2h-1.5v2.7H158v-6.8h2.8c1.5,0,2.4,0.8,2.4,2.1c0,1-0.5,1.7-1.5,1.9l1.9,2.9h-1.3L160.6,127.2z
		 M159.1,126.3h1.6c0.9,0,1.3-0.4,1.3-1.1s-0.4-1.1-1.3-1.1h-1.6V126.3z"/>
	<path class="st2" d="M171.9,130h-1v-4l0.1-1.9h0l-2.1,5.8H168l-2.1-5.8h0l0.1,1.9v4h-1v-6.8h1.6l1.4,4l0.5,1.6h0l0.5-1.6l1.4-4h1.6
		V130z"/>
	<path class="st3" d="M90.1,22.7L72.5,51.8l4,7h35.1l4-7L98,22.7L90.1,22.7L90.1,22.7z M84.6,49.6L94,34.1l9.4,15.5H84.6z"/>
</g>
</svg>
